<svg width="28" height="28" viewBox="0 0 28 28" fill="none" xmlns="http://www.w3.org/2000/svg">
<path d="M15.4266 3.24468L16.6147 6.90122C17.2171 8.75532 18.9449 10.0106 20.8944 10.0106H24.7391C26.1922 10.0106 26.7964 11.8701 25.6208 12.7242L22.5104 14.984C20.9332 16.1299 20.2732 18.1611 20.8757 20.0152L22.0637 23.6717C22.5128 25.0537 20.931 26.2029 19.7555 25.3488L16.645 23.0889C15.0678 21.943 12.9322 21.943 11.355 23.0889L8.24453 25.3488C7.06895 26.2029 5.48724 25.0537 5.93626 23.6717L7.12435 20.0152C7.72678 18.1611 7.06682 16.1299 5.48963 14.984L2.37919 12.7242C1.20362 11.8701 1.80778 10.0106 3.26087 10.0106H7.10558C9.0551 10.0106 10.7829 8.75532 11.3853 6.90122L12.5734 3.24468C13.0224 1.86271 14.9776 1.86272 15.4266 3.24468Z" stroke="#FFB0B0" stroke-opacity="0.5" stroke-width="3"/>
</svg>
