<svg width="1588" height="772" viewBox="0 0 1588 772" fill="none" xmlns="http://www.w3.org/2000/svg">
<circle cx="1565" cy="13" r="11.5" stroke="white" stroke-opacity="0.5" stroke-width="3"/>
<circle cx="13" cy="303" r="11.5" stroke="white" stroke-opacity="0.5" stroke-width="3"/>
<path d="M1283.4 526.75L1293.36 544C1295.09 547 1292.92 550.75 1289.46 550.75H1269.54C1266.08 550.75 1263.91 547 1265.64 544L1275.6 526.75C1277.33 523.75 1281.67 523.75 1283.4 526.75Z" stroke="white" stroke-opacity="0.5" stroke-width="3"/>
<path d="M145.823 730.227L150.978 749.467C151.875 752.813 148.813 755.875 145.467 754.979L126.227 749.823C122.881 748.927 121.76 744.744 124.21 742.295L138.294 728.21C140.744 725.761 144.926 726.881 145.823 730.227Z" stroke="white" stroke-opacity="0.5" stroke-width="3"/>
<path d="M1565.93 612.245L1567.68 617.629C1568.28 619.483 1570.01 620.738 1571.96 620.738H1577.62C1579.07 620.738 1579.67 622.598 1578.5 623.452L1573.92 626.779C1572.34 627.925 1571.68 629.956 1572.28 631.81L1574.03 637.194C1574.48 638.576 1572.9 639.725 1571.72 638.871L1567.15 635.544C1565.57 634.398 1563.43 634.398 1561.85 635.544L1557.28 638.871C1556.1 639.725 1554.52 638.576 1554.97 637.194L1556.72 631.81C1557.32 629.956 1556.66 627.925 1555.08 626.779L1550.5 623.452C1549.33 622.598 1549.93 620.738 1551.38 620.738H1557.04C1558.99 620.738 1560.72 619.483 1561.32 617.629L1563.07 612.245C1563.52 610.863 1565.48 610.863 1565.93 612.245Z" stroke="white" stroke-opacity="0.5" stroke-width="3"/>
<path d="M363.927 320.245L365.9 326.32C366.503 328.174 368.231 329.429 370.18 329.429H376.568C378.021 329.429 378.625 331.289 377.45 332.143L372.282 335.897C370.705 337.043 370.045 339.074 370.647 340.928L372.621 347.003C373.07 348.385 371.488 349.534 370.313 348.68L365.145 344.926C363.568 343.78 361.432 343.78 359.855 344.926L354.687 348.68C353.512 349.534 351.93 348.385 352.379 347.003L354.353 340.928C354.955 339.074 354.295 337.043 352.718 335.897L347.55 332.143C346.375 331.289 346.979 329.429 348.432 329.429H354.82C356.769 329.429 358.497 328.174 359.1 326.32L361.073 320.245C361.522 318.863 363.478 318.863 363.927 320.245Z" stroke="white" stroke-opacity="0.5" stroke-width="3"/>
<rect x="1290.5" y="224.5" width="24" height="24" rx="5.5" stroke="white" stroke-opacity="0.5" stroke-width="3"/>
<rect x="159.108" y="21.1076" width="24" height="24" rx="5.5" transform="rotate(-30 159.108 21.1076)" stroke="white" stroke-opacity="0.5" stroke-width="3"/>
</svg>
