<?xml version="1.0" encoding="utf-8"?>
<svg viewBox="400 100 800 500" width="800" height="500" xmlns="http://www.w3.org/2000/svg">
  <rect x="-0.365" y="10.447" width="19.94" height="19.94" rx="5.5" transform="matrix(0.866025, -0.5, 0.5, 0.866025, 1061.774065, 405.999579)" stroke="#ADABFF" stroke-opacity="0.5" stroke-width="3" style="fill: rgb(255, 255, 255);"/>
  <path d="M 1128.121 459.582 L 1129.309 463.239 C 1129.911 465.093 1131.639 466.348 1133.588 466.348 L 1137.433 466.348 C 1138.886 466.348 1139.49 468.208 1138.315 469.062 L 1135.204 471.322 C 1133.627 472.467 1132.967 474.499 1133.57 476.353 L 1134.758 480.009 C 1135.207 481.391 1133.625 482.54 1132.449 481.686 L 1129.339 479.426 C 1127.762 478.281 1125.626 478.281 1124.049 479.426 L 1120.938 481.686 C 1119.763 482.54 1118.181 481.391 1118.63 480.009 L 1119.818 476.353 C 1120.421 474.499 1119.761 472.467 1118.184 471.322 L 1115.073 469.062 C 1113.898 468.208 1114.502 466.348 1115.955 466.348 L 1119.8 466.348 C 1121.749 466.348 1123.477 465.093 1124.079 463.239 L 1125.267 459.582 C 1125.716 458.2 1127.672 458.2 1128.121 459.582 Z" stroke="#FFB0B0" stroke-opacity="0.5" stroke-width="3" style="fill: rgb(255, 255, 255);"/>
  <path d="M 1066.681 510 C 1066.681 515.586 1062.365 520 1057.181 520 C 1051.996 520 1047.681 515.586 1047.681 510 C 1047.681 504.413 1051.996 500 1057.181 500 C 1062.365 500 1066.681 504.413 1066.681 510 Z" stroke="#FFD28D" stroke-width="3" style="fill: rgb(255, 255, 255);"/>
</svg>